<svg xmlns="http://www.w3.org/2000/svg" width="1254" height="1254" viewBox="0 0 1254 1254" fill="none">
<defs><linearGradient id="g" x1="0" y1="0" x2="0" y2="1"><stop offset="0%" stop-color="#FF5B8A"/><stop offset="100%" stop-color="#D40059"/></linearGradient></defs>
<g><rect x="202" y="296" width="112" height="534" rx="26" fill="url(#g)"/><path d="M202 714 L202 830 H314 V609 Z" fill="#D9DEE8" opacity="0.98"/><path d="M255 703 V430" stroke="#F3F7FB" stroke-width="8" stroke-linecap="round" stroke-linejoin="round"/><path d="M219 739 V502 L239 483 V428" stroke="#F3F7FB" stroke-width="8" stroke-linecap="round" stroke-linejoin="round"/><path d="M236 694 V566 L257 546 V474" stroke="#F3F7FB" stroke-width="8" stroke-linecap="round" stroke-linejoin="round"/><circle cx="255" cy="420" r="17" fill="none" stroke="#F3F7FB" stroke-width="8"/><circle cx="219" cy="492" r="17" fill="none" stroke="#F3F7FB" stroke-width="8"/><circle cx="255" cy="670" r="14" fill="none" stroke="#F3F7FB" stroke-width="8"/></g>
<g><path d="M315 834 L605 297 H682 L950 834 H798 L638 438 L470 834 Z" fill="url(#g)"/><circle cx="560" cy="572" r="28" fill="#F3F7FB"/><circle cx="560" cy="572" r="18" fill="#314054"/><path d="M456 729 L549 600" stroke="#F3F7FB" stroke-width="12" stroke-linecap="round"/><path d="M567 572 H707" stroke="#F3F7FB" stroke-width="38" stroke-linecap="round"/><path d="M448 730 C429 719 404 720 379 730" stroke="#F3F7FB" stroke-width="50" stroke-linecap="round"/><path d="M393 742 C402 770 395 801 369 829" stroke="#F3F7FB" stroke-width="52" stroke-linecap="round"/></g>
<g><rect x="951" y="296" width="106" height="534" rx="26" fill="url(#g)"/><path d="M951 635 V830 H1057 V587 Z" fill="#D9DEE8" opacity="0.98"/><circle cx="1002" cy="650" r="21" fill="#F3F7FB"/><circle cx="1002" cy="650" r="12" fill="#F6B73C"/><path d="M975 677 L952 698" stroke="#F3F7FB" stroke-width="8" stroke-linecap="round"/><path d="M1029 623 L1052 600" stroke="#F3F7FB" stroke-width="8" stroke-linecap="round"/></g>
</svg>